<svg width="119" height="31" viewBox="0 0 119 31" fill="none" xmlns="http://www.w3.org/2000/svg">
<g clip-path="url(#clip0_4667_5315)">
<path d="M35.645 21.2698C39.9243 21.2698 43.3947 17.9059 43.3947 13.52C43.3947 9.13421 39.9243 5.77026 35.645 5.77026C31.3656 5.77026 27.8953 9.13421 27.8953 13.52C27.8953 17.9059 31.3656 21.2698 35.645 21.2698ZM35.645 17.9485C33.2179 17.9485 31.3017 16.1814 31.3017 13.52C31.3017 10.8588 33.2179 9.09164 35.645 9.09164C38.0721 9.09164 39.9883 10.8588 39.9883 13.52C39.9883 16.1814 38.0721 17.9485 35.645 17.9485ZM51.4443 10.0284C50.0392 10.0284 48.9746 10.5393 48.3998 11.3272V10.3265H45.2062V20.9717H48.3998V15.1594C48.3998 13.6478 49.2088 12.9665 50.3798 12.9665C51.4018 12.9665 52.2321 13.5839 52.2321 14.9039V20.9717H55.4257V14.4355C55.4257 11.5613 53.5947 10.0284 51.4443 10.0284ZM62.9414 21.2698C66.1776 21.2698 68.4769 19.5665 68.4769 16.6923C68.4769 13.5413 65.9434 12.7536 63.6866 12.0722C61.3659 11.3697 61.0039 10.9013 61.0039 10.22C61.0039 9.6239 61.5362 9.09164 62.6008 9.09164C63.9633 9.09164 64.6659 9.7516 65.1769 10.8161L68.0511 9.13421C66.9653 6.94127 65.0491 5.77026 62.6008 5.77026C60.0246 5.77026 57.5975 7.43095 57.5975 10.3051C57.5975 13.1581 59.7691 14.2226 61.9833 14.84C64.2188 15.4575 65.0704 15.8194 65.0704 16.7349C65.0704 17.3097 64.6659 17.9485 63.0478 17.9485C61.3659 17.9485 60.4504 17.1181 59.9181 15.8833L56.98 17.5865C57.8104 19.7794 59.8117 21.2698 62.9414 21.2698ZM76.4384 10.0284C75.0119 10.0284 73.9689 10.5181 73.2662 11.3272V10.3265H70.0729V25.2298H73.2662V19.9711C73.9689 20.7801 75.0119 21.2698 76.4384 21.2698C79.228 21.2698 81.527 18.8214 81.527 15.6491C81.527 12.4768 79.228 10.0284 76.4384 10.0284ZM75.7999 18.2465C74.3311 18.2465 73.2662 17.2459 73.2662 15.6491C73.2662 14.0523 74.3311 13.0516 75.7999 13.0516C77.2694 13.0516 78.3336 14.0523 78.3336 15.6491C78.3336 17.2459 77.2694 18.2465 75.7999 18.2465ZM91.0663 10.3265V11.3272C90.3636 10.5181 89.3205 10.0284 87.8941 10.0284C85.1052 10.0284 82.8055 12.4768 82.8055 15.6491C82.8055 18.8214 85.1052 21.2698 87.8941 21.2698C89.3205 21.2698 90.3636 20.7801 91.0663 19.9711V20.9717H94.2597V10.3265H91.0663ZM88.5326 18.2465C87.0638 18.2465 85.9989 17.2459 85.9989 15.6491C85.9989 14.0523 87.0638 13.0516 88.5326 13.0516C90.0021 13.0516 91.0663 14.0523 91.0663 15.6491C91.0663 17.2459 90.0021 18.2465 88.5326 18.2465ZM101.713 21.2698C103.799 21.2698 105.609 20.184 106.524 18.5233L103.735 16.9265C103.394 17.6717 102.606 18.1188 101.67 18.1188C100.286 18.1188 99.2644 17.1181 99.2644 15.6491C99.2644 14.1801 100.286 13.1794 101.67 13.1794C102.606 13.1794 103.373 13.6265 103.735 14.3717L106.524 12.7536C105.609 11.1142 103.778 10.0284 101.713 10.0284C98.4765 10.0284 96.0703 12.4768 96.0703 15.6491C96.0703 18.8214 98.4765 21.2698 101.713 21.2698ZM110.455 16.9265H118.013C118.097 16.522 118.14 16.0962 118.14 15.6491C118.14 12.4342 115.841 10.0284 112.733 10.0284C109.369 10.0284 107.069 12.4768 107.069 15.6491C107.069 18.8214 109.326 21.2698 112.967 21.2698C114.989 21.2698 116.565 20.5246 117.608 19.0768L115.053 17.6078C114.627 18.0762 113.882 18.4169 113.01 18.4169C111.838 18.4169 110.859 18.0336 110.455 16.9265ZM110.391 14.542C110.689 13.4562 111.498 12.8601 112.711 12.8601C113.669 12.8601 114.627 13.3071 114.968 14.542H110.391Z" fill="black"/>
<path d="M0.0703125 22.4943L14.0225 30.2674L13.986 21.7302L6.94298 17.8071L0.0703125 22.4943Z" fill="#FF7C00"/>
<path d="M13.9521 13.193L13.9862 21.7303L14.0227 30.2676L20.8954 25.5804L20.8588 17.043L20.8248 8.50574L13.9521 13.193Z" fill="#0091C5"/>
<path d="M0 5.41992L0.0365035 13.9572L0.0705784 22.4945L6.94325 17.8073L6.90675 9.26997L0 5.41992Z" fill="#9CC703"/>
<path d="M0 5.41966L13.9522 13.1928L20.8249 8.50554L6.87267 0.732422L0 5.41966Z" fill="#FAC305"/>
</g>
<defs>
<clipPath id="clip0_4667_5315">
<rect width="118.14" height="29.5352" fill="white" transform="translate(0 0.732422)"/>
</clipPath>
</defs>
</svg>
